<svg 
  xmlns="http://www.w3.org/2000/svg" 
  clip-rule="evenodd" 
  fill-rule="evenodd" 
  stroke-linejoin="round"
  stroke-miterlimit="2" 
  version="1.1" 
  viewBox="0 0 1400 395" 
  xml:space="preserve">
  <path id="background" 
    fill="#baafbf"
    d="m1300 90.363c-75.283 8.3543-170.43 183.32-246.11 197.58-75.683 14.264-163.88-132.98-222.86-111.26-42.57 15.678-74.655 30.234-107.71 25.048-33.053-5.188-88.691-52.198-123.32-72.758-46.32-27.499-119.18 84.593-162.51 89.28-43.337 4.687-76.483-90.883-109.03-86.806-32.546 4.0756-58.937 98.66-86.263 111.26-25.883 11.932-54.943-34.847-77.7-35.663-22.047-0.78889-38.467 39.25-58.89 30.773-26.135-10.846-64.107-58.323-105.6-96.66v255.51h1400v-255.42c-32.437-29.973-66.966-54.547-100-50.88z" />
</svg>