<svg 
  xmlns="http://www.w3.org/2000/svg" 
  clip-rule="evenodd" fill-rule="evenodd" 
  stroke-linejoin="round"
  stroke-miterlimit="2" 
  version="1.1" 
  viewBox="0 0 1400 395" 
  xml:space="preserve">
  <g id="foreground">
    <g transform="scale(.33333)" fill="#d8d8d8">
      <path
        d="m1112 1178.8c0.2249 0.4651-18.427-121.85 80.237-156.8 145.21-22.276 170.04-122.03 221.28-124.62 164.81-8.3533 104.13 128.18 231.52 181.02 52.038 21.584 74.138 102.67 73.503 102.67z" />
      <path
        d="m2342.2 1181.3c8.1259-22.207 60.147-59.87 94.421-77.008 55.433-27.716 96.743-5.807 154-17.258 20.11-4.022 35.94-27.265 53.1-35.846 45.54-22.768 158.36 68.075 189.85 99.571 11.64 11.641 48.04 17.866 41.71 30.541z" />
      <path
        d="m3138.9 1180.4c8.1259-22.207 60.147-59.87 94.421-77.008 55.433-27.716 96.743-5.807 154-17.258 20.11-4.022 43.83 81.591 37.49 94.266z" />
      <path
        d="m944.28 1172.7c-4.0101-14.543-29.682-39.208-46.596-50.431-27.356-18.151-52.06-6.3478-67.808 2.0576-13.976 7.4565-29.822 40.073-26.693 48.373z" />
      <path
        d="m508.7 1177.7c-0.14395 0.3203-2.2977-49.951-40.009-96.224-38.694-47.478-120.18-95.872-152.98-97.661-105.49-5.7548-66.647 88.306-148.18 124.71-33.308 14.87-47.453 70.736-47.047 70.736z" />
      <path
        d="m3708.7 1180.4c-4.0102-14.543-29.682-39.208-46.596-50.431-27.356-18.151-52.06-6.3478-67.808 2.0576-13.976 7.4565-29.822 40.073-26.693 48.373z" />
      <path
        d="m4045.9 1180.4c-8.1259-22.207-60.147-59.87-94.421-77.008-55.433-27.716-35.603 7.4057-92.863-4.0453-20.11-4.022-104.97 68.378-98.629 81.053z" />
    </g>
  </g>
</svg>