<svg 
  xmlns="http://www.w3.org/2000/svg" 
  clip-rule="evenodd" fill-rule="evenodd" 
  stroke-linejoin="round"
  stroke-miterlimit="2" 
  version="1.1" 
  viewBox="0 0 1400 395" 
  xml:space="preserve">
  <g transform="scale(.33333)" fill="#aba89d">
    <path id="mid"
      d="m3400.7 1197.8s-161.1-295.34-292.98-327.69c-131.88-32.359-329.08 186.99-498.32 165.74-169.23-21.249-348.73-280.78-517.07-293.23-168.34-12.446-388.84 189.77-492.96 218.55-45.671 12.631-82.382-47.016-131.68-45.841-50.888 1.2143-115.87 70.901-173.74 53.126-61.102-18.769-120.11-159.67-192.88-165.74-72.788-6.0714-146.9 136.29-243.8 129.31-96.899-6.9811-234-212.17-337.58-171.2-103.56 40.965-249.4 436.97-249.4 436.97z" />
  </g>
</svg>